<?xml version="1.0" standalone="no"?>
<!DOCTYPE svg PUBLIC "-//W3C//DTD SVG 1.1//EN" "http://www.w3.org/Graphics/SVG/1.1/DTD/svg11.dtd" >
<svg xmlns="http://www.w3.org/2000/svg">
<metadata></metadata>
<defs>
<font id="roduscut500medium" horiz-adv-x="1392" >
<font-face units-per-em="2048" ascent="1638" descent="-410" />
<missing-glyph horiz-adv-x="500" />
<glyph horiz-adv-x="0" />
<glyph unicode="&#xd;" horiz-adv-x="2048" />
<glyph unicode="!" horiz-adv-x="593" d="M133 0h103h2h102v205h-102h-2h-103v-205zM133 307h205v103v921v103h-205v-103v-921v-103z" />
<glyph unicode="&#x22;" horiz-adv-x="778" d="M102 922h205v102v307v103h-205v-103v-307v-102zM389 922h205v102v307v103h-205v-103v-307v-102z" />
<glyph unicode="#" horiz-adv-x="1249" d="M-29 39l195 -68l33 97l84 239h213l-60 -170l-35 -98l195 -68l33 97l84 239h250h102v205h-102h-179l144 410h35h102v204h-66l60 170l35 99l-195 67l-33 -96l-84 -240h-213l60 170l35 99l-195 67l-33 -96l-84 -240h-250h-102v-204h102h179l-144 -410h-35h-102v-205h66 l-60 -170zM354 512l144 410h213l-144 -410h-213z" />
<glyph unicode="$" horiz-adv-x="1048" d="M-8 938q0 -91 30 -161.5t81 -112.5t113.5 -63t133.5 -21h35v-332h-174h-102v-205h102h174v-55v-103h205v103v55h37q95 -1 174.5 38t131.5 125.5t52 207.5q0 91 -29.5 163t-80 116.5t-114 67.5t-134.5 23h-37v301h172h102v205h-102h-172v86v103h-205v-103v-86h-35 q-70 0 -133 -21t-114 -62t-81 -110.5t-30 -158.5zM197 938q0 96 28.5 121.5t124.5 25.5h35v-301h-35q-51 0 -77.5 4.5t-45.5 21.5t-24.5 46t-5.5 82zM590 248v332h37q93 0 123 -30.5t30 -135.5q0 -107 -29 -137.5t-122 -28.5h-2h-37z" />
<glyph unicode="%" horiz-adv-x="1413" d="M68 82l163 -123l62 82l262 352l33 -45l227 -307l31 -41h102l31 41l229 307l45 62l-45 61l-229 307l-31 41h-75l335 451l62 82l-164 123l-62 -82l-261 -351l-31 43l-230 308l-30 41h-103l-31 -41l-229 -308l-45 -61l45 -61l229 -308l31 -41h76l-336 -450zM338 1024 l102 135l103 -135l-103 -135zM797 410l100 135l102 -135l-102 -136z" />
<glyph unicode="&#x26;" horiz-adv-x="1404" d="M86 1159l35 -65l151 -276l-151 -271l-25 -45l21 -47l178 -396l29 -59l8 -20l86 24l336 100l18 7l14 10l39 29l11 -13l14 -16l18 -10l205 -101l92 -45l90 185l-92 45l-169 81l186 140l82 61l-123 164l-82 -61l-201 -152l-341 404l136 245l33 62l-45 53l-172 205l-31 37 h-92l-29 -33l-178 -189zM326 494l83 149l284 -337l-15 -11l-232 -70zM336 1126l49 52l53 -64l-48 -86z" />
<glyph unicode="'" horiz-adv-x="471" d="M33 922h205v102v307v103h-205v-103v-307v-102z" />
<glyph unicode="(" horiz-adv-x="696" d="M109 520q0 -217 55 -431.5t158 -385.5l53 -88l176 106l-53 89q-185 305 -185 710q0 406 185 711l53 88l-176 106l-53 -88q-103 -171 -158 -385.5t-55 -431.5z" />
<glyph unicode=")" horiz-adv-x="696" d="M68 -266l165 -121l60 84q81 111 133 270.5t69 292t17 260.5t-17 260.5t-69 292t-133 270.5l-60 84l-165 -120l61 -82q96 -134 137 -325t41 -380t-41 -379.5t-137 -324.5z" />
<glyph unicode="*" horiz-adv-x="944" d="M74 1077l90 -184l92 45l76 36v-52v-103h205v103v52l75 -36l93 -45l90 184l-93 45l-31 16l31 15l93 45l-90 184l-93 -45l-75 -36v53v102h-205v-102v-53l-76 36l-92 45l-90 -184l92 -45l32 -15l-32 -16z" />
<glyph unicode="+" horiz-adv-x="1150" d="M109 614h102h225v-249v-103h205v103v249h223h103v205h-103h-223v250v102h-205v-102v-250h-225h-102v-205z" />
<glyph unicode="," horiz-adv-x="614" d="M72 -94l182 -96l47 90l117 219l49 92l-182 96l-47 -90l-117 -219z" />
<glyph unicode="-" horiz-adv-x="888" d="M109 614h102h391h103v205h-103h-391h-102v-205z" />
<glyph unicode="." horiz-adv-x="593" d="M158 0h102h2h103v205h-103h-2h-102v-205z" />
<glyph unicode="/" horiz-adv-x="811" d="M86 29l199 -52l24 101l314 1229l26 98l-198 51l-25 -100l-313 -1229z" />
<glyph unicode="0" horiz-adv-x="1169" d="M94 342l17 -25l172 -270l30 -47h56h342h55l31 47l172 270l16 25v31v688v31l-16 24l-172 270l-31 48h-55h-340h-56l-30 -48l-174 -270l-17 -24v-31v-688v-31zM299 403v627l127 199h229l125 -199v-627l-125 -198h-231z" />
<glyph unicode="1" horiz-adv-x="927" d="M61 805l185 -86l43 92l28 59v-665h-120h-103v-205h103h120h205h119h102v205h-102h-119v1126v103h-168l-26 -60l-224 -477z" />
<glyph unicode="2" horiz-adv-x="1169" d="M94 0h103h686h102v205h-102h-584v143l133 266h279h63l29 58l172 344l24 51l-30 49l-172 270l-31 48h-55h-340h-56l-30 -48l-174 -270l172 -110l143 223h229l111 -174l-119 -236h-278h-64l-29 -57l-172 -344l-10 -21v-24v-271v-102z" />
<glyph unicode="3" horiz-adv-x="1169" d="M94 0h103h514h65l27 59l172 371l20 43l-20 43l-172 377l-27 59h-65h-82l323 305l33 29v148h-102h-686h-103v-205h103h426l-324 -305l-33 -29v-147h103h276l125 -275l-125 -268h-448h-103v-205z" />
<glyph unicode="4" horiz-adv-x="1146" d="M29 270h102h551v-168v-102h205v102v168h35h102v205h-102h-35v856v103h-156l-31 -45l-653 -959zM326 475l356 524v-524h-356z" />
<glyph unicode="5" horiz-adv-x="1169" d="M55 403l56 -86l172 -270l30 -47h56h342h55l31 47l172 270l16 25v31v307v25l-10 20l-172 344l-29 57h-63h-342h-9v105h449h102v205h-102h-551h-102v-103v-309v-102h102h111h278l133 -267v-252l-125 -198h-231l-141 223l-56 86z" />
<glyph unicode="6" horiz-adv-x="1169" d="M94 342l17 -25l172 -270l30 -47h56h342h55l31 47l172 270l28 45l-20 50l-172 415l-27 64h-67l-412 2v137l125 199h231l142 -223l172 110l-172 270l-31 48h-55h-342h-56l-30 -48l-172 -270l-17 -24v-31v-688v-31zM299 403v285l344 -2l125 -303l-113 -178h-231z" />
<glyph unicode="7" horiz-adv-x="1169" d="M94 1229h103h551l-306 -1100l-28 -98l198 -56l27 101l342 1229l37 129h-33h-102h-686h-103v-205z" />
<glyph unicode="8" horiz-adv-x="1169" d="M80 367l31 -50l172 -270l30 -47h56h342h55l31 47l172 270l30 50l-24 51l-149 298l147 277l26 49l-28 50l-172 290l-29 52h-59h-340h-58l-30 -50l-174 -290l-29 -52l26 -49l148 -277l-150 -298zM313 379l119 235h215l119 -235l-111 -174h-231zM313 1038l115 191h223 l115 -191l-117 -219h-219z" />
<glyph unicode="9" horiz-adv-x="1169" d="M80 1067l24 -51l172 -344l29 -58h64h411v-211l-125 -198h-231l-141 223l-172 -111l172 -270l30 -47h56h342h55l31 47l172 270l16 25v31v688v31l-16 24l-172 270l-31 48h-55h-342h-56l-30 -48l-172 -270zM313 1055l111 174h231l125 -199v-211h-348z" />
<glyph unicode=":" horiz-adv-x="614" d="M168 0h102h2h103v205h-103h-2h-102v-205zM168 776h102h2h103v205h-103h-2h-102v-205z" />
<glyph unicode=";" horiz-adv-x="593" d="M51 -94l182 -96l48 90l116 219l49 92l-182 96l-47 -90l-117 -219zM145 768h103h2h102v205h-102h-2h-103v-205z" />
<glyph unicode="&#x3c;" horiz-adv-x="1202" d="M109 649l61 -26l704 -308l95 -41l82 189l-95 41l-489 213l489 213l95 41l-82 188l-95 -41l-704 -307l-61 -27v-135z" />
<glyph unicode="=" horiz-adv-x="1202" d="M109 440h102h704h103v205h-103h-704h-102v-205zM109 788h102h704h103v205h-103h-704h-102v-205z" />
<glyph unicode="&#x3e;" horiz-adv-x="1202" d="M76 463l82 -189l94 41l704 308l62 26v135l-62 27l-704 307l-94 41l-82 -188l94 -41l489 -213l-489 -213z" />
<glyph unicode="?" horiz-adv-x="1187" d="M70 1030l172 -110l55 86l143 223h234l125 -197v-117l-121 -202h-121h-102v-103v-194v-103h204v103v92h76h58l30 49l166 277l15 24v29v174v29l-17 26l-170 270l-29 48h-57h-346h-55l-31 -48l-174 -270zM455 0h102h2h103v205h-103h-2h-102v-205z" />
<glyph unicode="A" horiz-adv-x="1425" d="M-53 51l186 -84l41 92l97 211h740l95 -211l43 -92l186 84l-41 94l-555 1229l-28 60h-131l-27 -60l-412 -899h-8v-17l-143 -313zM365 475l280 608l274 -608h-554z" />
<glyph unicode="B" horiz-adv-x="1372" d="M143 0h103h631h53l31 45l208 307l39 58l-39 57l-170 251l170 249l41 57l-41 57l-208 308l-31 45h-53h-631h-103v-103v-512v-205v-512v-102zM348 205v409h475l140 -204l-140 -205h-475zM348 819v410h475l138 -205l-140 -205h-473z" />
<glyph unicode="C" d="M143 338l23 -29l215 -270l31 -39h49h430h49l31 39l215 270l-160 127l-184 -231h-332l-162 203v618l162 203h332l184 -232l160 127l-215 271l-31 39h-49h-430h-49l-31 -39l-215 -271l-23 -28v-35v-688v-35z" />
<glyph unicode="D" d="M143 0h103h645h49l31 39l215 270l22 29v35v688v35l-22 28l-215 271l-31 39h-49h-645h-103v-103v-1229v-102zM348 205v1024h494l162 -203v-618l-162 -203h-494z" />
<glyph unicode="E" d="M143 0h103h860h102v205h-102h-758v409h543h102v205h-102h-543v410h758h102v205h-102h-860h-103v-103v-512v-205v-512v-102z" />
<glyph unicode="F" horiz-adv-x="1218" d="M143 0h205v102v512h414h102v205h-102h-414v410h643h103v205h-103h-745h-103v-103v-512v-205v-512v-102z" />
<glyph unicode="G" d="M143 338l23 -29l215 -270l31 -39h49h430h49l31 39l215 270l22 29v35v344v102h-102h-430v-205h328v-206l-162 -203h-332l-162 203v618l162 203h332l184 -232l160 127l-215 271l-31 39h-49h-430h-49l-31 -39l-215 -271l-23 -28v-35v-688v-35z" />
<glyph unicode="H" d="M143 0h205v102v512h656v-512v-102h204v102v512v205v512v103h-204v-103v-512h-656v512v103h-205v-103v-512v-205v-512v-102z" />
<glyph unicode="I" horiz-adv-x="880" d="M143 0h103h73h205h70h102v205h-102h-70v1024h70h102v205h-102h-70h-205h-73h-103v-205h103h73v-1024h-73h-103v-205z" />
<glyph unicode="J" horiz-adv-x="1198" d="M102 393l62 -82l205 -270l30 -41h52h256h51l30 41l205 270l21 27v35v958v103h-205v-103v-923l-154 -203h-153l-174 229l-62 82z" />
<glyph unicode="K" d="M143 0h205v102v512h73l615 -585l74 -72l141 149l-75 70l-566 541l566 540l75 70l-141 150l-74 -72l-615 -586h-73v512v103h-205v-103v-512v-205v-512v-102z" />
<glyph unicode="L" horiz-adv-x="1198" d="M143 0h103h665h103v205h-103h-563v1126v103h-205v-103v-1229v-102z" />
<glyph unicode="M" horiz-adv-x="1673" d="M143 0h205v102v799l377 -842l27 -59h131l26 59l375 842v-799v-102h205v102v1229v103h-168l-27 -60l-477 -1028l-479 1028l-27 60h-168v-103v-1229v-102z" />
<glyph unicode="N" d="M143 0h205v102v904l674 -963l31 -43h155v102v1229v103h-204v-103v-903l-674 963l-31 43h-156v-103v-1229v-102z" />
<glyph unicode="O" d="M143 338l23 -29l215 -270l31 -39h49h430h49l31 39l215 270l22 29v35v688v35l-22 28l-215 271l-31 39h-49h-428h-49l-31 -39l-217 -271l-23 -26v-37v-688v-35zM348 408v616l164 205h330l162 -203v-618l-162 -203h-332z" />
<glyph unicode="P" d="M143 0h205v102v512h543h53l31 43l215 308l41 59l-41 59l-215 308l-31 43h-53h-645h-103v-103v-512v-205v-512v-102zM348 819v410h490l143 -205l-143 -205h-490z" />
<glyph unicode="Q" d="M143 338l23 -29l215 -270l31 -39h49h430h49l31 39l22 28l43 -40l76 -70l139 152l-75 69l-55 50l65 81l22 29v35v688v35l-22 28l-215 271l-31 39h-49h-428h-49l-31 -39l-217 -271l-23 -26v-37v-688v-35zM348 408v616l164 205h330l162 -203v-618l-33 -41l-88 82l-76 69 l-139 -151l75 -70l99 -91v-1h-332z" />
<glyph unicode="R" d="M143 0h205v102v512h489l167 -237v-275v-102h204v102v308v32l-18 27l-174 248l174 248l41 59l-41 59l-215 308l-31 43h-53h-645h-103v-103v-512v-205v-512v-102zM348 819v410h490l143 -205l-143 -205h-490z" />
<glyph unicode="S" d="M121 1024l41 -59l215 -308l31 -43h53h377l143 -204l-143 -205h-324l-184 264l-168 -119l215 -307l31 -43h53h430h53l31 43l215 307l41 60l-41 59l-215 307l-31 43h-53h-377l-143 205l143 205h283l184 -264l168 118l-215 308l-31 43h-53h-389h-53l-31 -43l-215 -308z" />
<glyph unicode="T" horiz-adv-x="1249" d="M0 1229h102h328v-1127v-102h205v102v1127h328h102v205h-102h-328h-205h-328h-102v-205z" />
<glyph unicode="U" d="M143 338l23 -29l215 -270l31 -39h49h430h49l31 39l215 270l22 29v35v958v103h-204v-103v-923l-162 -203h-332l-162 203v923v103h-205v-103v-958v-35z" />
<glyph unicode="V" horiz-adv-x="1341" d="M-94 1384l41 -94l538 -1229l27 -61h135l27 61l536 1229l41 94l-188 82l-41 -94l-442 -1014l-445 1014l-41 94z" />
<glyph unicode="W" horiz-adv-x="1988" d="M-88 1395l33 -97l420 -1228l22 -70h145l25 68l344 954l326 -952l22 -70h146l24 68l441 1228l34 97l-192 69l-35 -96l-342 -954l-326 952l-22 70h-146l-24 -68l-344 -954l-326 952l-33 96z" />
<glyph unicode="X" horiz-adv-x="1331" d="M41 78l168 -119l59 84l346 494l347 -494l59 -84l168 119l-60 84l-388 555l388 555l60 84l-168 119l-59 -84l-347 -495l-346 495l-59 84l-168 -119l59 -84l389 -555l-389 -555z" />
<glyph unicode="Y" horiz-adv-x="1187" d="M-102 1352l61 -82l440 -587v-581v-102h205v102v581l440 587l62 82l-164 123l-61 -82l-379 -506l-379 506l-62 82z" />
<glyph unicode="Z" horiz-adv-x="1351" d="M102 0h103h860h102v205h-102h-670l715 1069l16 160h-102h-758h-102v-205h102h568l-715 -1069z" />
<glyph unicode="[" horiz-adv-x="727" d="M109 -27v-32l18 -27l152 -217l30 -43h53h78h103v205h-103h-24l-103 147v1028l103 148h24h103v204h-103h-78h-53l-30 -43l-152 -217l-18 -26v-33v-1094z" />
<glyph unicode="\" horiz-adv-x="757" d="M90 1411l21 -100l260 -1229l20 -100l201 41l-21 100l-260 1229l-20 100z" />
<glyph unicode="]" horiz-adv-x="727" d="M109 -141v-205h102h78h53l31 43l151 217l19 27v32v1094v33l-19 26l-151 217l-31 43h-53h-78h-102v-204h102h25l102 -148v-1028l-102 -147h-25h-102z" />
<glyph unicode="^" horiz-adv-x="974" d="M78 659l190 -75l39 96l144 369l141 -369l37 -96l192 73l-37 97l-237 614l-27 66h-139l-27 -66l-239 -614z" />
<glyph unicode="_" horiz-adv-x="1095" d="M-16 0h102l926 -2h102v205h-102l-926 2h-102v-205z" />
<glyph unicode="`" horiz-adv-x="614" d="M78 1391l37 -97l116 -307l37 -96l193 74l-37 96l-117 307l-37 96z" />
<glyph unicode="a" horiz-adv-x="1071" d="M78 315l45 -61l160 -213l30 -41h52h192h41l29 29l55 51v-80h205v102v168v43v2v101v338v32l-21 29l-139 189l-31 40h-51h-278h-52l-30 -40l-142 -189l164 -123l111 148h176l88 -119v-86h-317h-52l-30 -41l-160 -217zM332 315l84 115h266v-14v-56l-166 -155h-100z" />
<glyph unicode="b" horiz-adv-x="1071" d="M123 0h102h420h51l31 41l139 188l21 29v33v461v32l-21 29l-139 191l-31 40h-51h-317v308v102h-205v-102v-308v-204v-738v-102zM328 205v635h266l88 -121v-395l-88 -119h-266z" />
<glyph unicode="c" horiz-adv-x="1071" d="M123 254l20 -27l140 -186l30 -41h52h282h51l31 43l137 188l-164 119l-106 -145h-180l-88 119v395l90 121h176l108 -150l164 123l-139 191l-31 40h-51h-278h-52l-30 -40l-142 -189l-20 -27v-34v-465v-35z" />
<glyph unicode="d" horiz-adv-x="1071" d="M123 256l20 -27l142 -188l30 -41h52h417h103v102v738v204v308v102h-205v-102v-308h-315h-52l-30 -40l-142 -191l-20 -27v-34v-461v-35zM328 326v391l90 123h264v-635h-264z" />
<glyph unicode="e" horiz-adv-x="1099" d="M123 254l22 -29l148 -186l31 -39h49h297h51l31 41l143 188l-164 123l-113 -147h-196l-94 119v94h485h102v102v232v34l-20 27l-145 191l-31 40h-51h-295h-49l-31 -38l-148 -189l-22 -29v-34v-465v-35zM328 623v96l94 121h194l95 -123v-94h-383z" />
<glyph unicode="f" horiz-adv-x="716" d="M82 840h63v-738v-102h205v102v738h80h102v204h-102h-80v50l70 155h72h102v205h-102h-140h-67l-27 -61l-104 -236l-9 -18v-23v-72h-63v-204z" />
<glyph unicode="g" horiz-adv-x="1071" d="M123 254l20 -27l140 -186l30 -41h52h317v-45l-88 -119h-227h-103v-205h103h278h51l31 41l139 189l21 28v33v78v205v737v102h-103h-417h-52l-30 -40l-142 -189l-20 -27v-34v-465v-35zM328 324v395l90 121h264v-635h-266z" />
<glyph unicode="h" horiz-adv-x="1126" d="M123 0h205v102v538l39 46l125 154h145l100 -123v-615v-102h205v102v652v37l-22 28l-154 189l-31 36h-49h-244h-49l-31 -36l-34 -43v387v102h-205v-102v-1250v-102z" />
<glyph unicode="i" horiz-adv-x="614" d="M176 0h205v102v840v102h-205v-102v-840v-102zM178 1147h103h2h102v205h-102h-2h-103v-205z" />
<glyph unicode="j" horiz-adv-x="512" d="M-37 -293l168 -115l57 84l121 179l19 26v31v1030v102h-205v-102v-999l-103 -152zM123 1147h102h2h103v205h-103h-2h-102v-205z" />
<glyph unicode="k" horiz-adv-x="1071" d="M123 0h205v102v314l385 -385l71 -74l146 145l-74 72l-344 346l346 350l72 72l-146 145l-73 -73l-383 -387v725v102h-205v-102v-729v-205v-316v-102z" />
<glyph unicode="l" horiz-adv-x="634" d="M123 258l16 -27l123 -186l57 -84l170 113l-55 86l-106 159v1033v102h-205v-102v-1063v-31z" />
<glyph unicode="m" horiz-adv-x="1718" d="M123 0h205v102v600l180 138h41l178 -138v-600v-102h2h203h2v102l-2 601l180 137h43l174 -135v-603v-102h205v102v652v49l-39 31l-242 188l-28 22h-35h-113h-35l-26 -20l-186 -142l-185 142l-27 20h-34h-111h-35l-26 -20l-248 -188l-41 -31v-51v-652v-102z" />
<glyph unicode="n" horiz-adv-x="1071" d="M123 0h205v102v615l90 123h176l88 -119v-619v-102h205v102v652v32l-21 29l-139 189l-31 40h-51h-278h-52l-30 -40l-142 -191l-20 -27v-34v-650v-102z" />
<glyph unicode="o" horiz-adv-x="1071" d="M123 258l20 -29l140 -188l30 -41h52h280h51l31 41l139 188l21 29v33v463v32l-21 29l-139 189l-31 40h-51h-278h-52l-30 -40l-142 -189l-20 -27v-34v-463v-33zM328 324v395l90 121h176l88 -119v-397l-88 -119h-178z" />
<glyph unicode="p" horiz-adv-x="1071" d="M123 0v-266v-103h205v103v266h317h51l31 41l139 188l21 29v33v463v32l-21 29l-139 189l-31 40h-51h-420h-102v-102v-737v-205zM328 205v635h266l88 -119v-397l-88 -119h-266z" />
<glyph unicode="q" horiz-adv-x="1071" d="M123 254l20 -27l140 -186l30 -41h52h317v-266v-103h205v103v266v205v737v102h-103h-417h-52l-30 -40l-142 -189l-20 -27v-34v-465v-35zM328 324v395l90 121h264v-635h-266z" />
<glyph unicode="r" horiz-adv-x="796" d="M123 0h205v102v627l59 111h205h102v204h-102h-266h-62l-28 -53l-101 -188l-12 -25v-24v-652v-102z" />
<glyph unicode="s" horiz-adv-x="1071" d="M102 760l35 -60l139 -231l31 -49h58h223l74 -123l-68 -92h-178l-109 147l-164 -123l140 -188l30 -41h52h280h51l31 41l139 188l41 56l-35 59l-139 231l-31 50h-57h-223l-74 123l70 92h135l109 -148l163 123l-139 189l-31 40h-51h-237h-52l-30 -40l-142 -189z" />
<glyph unicode="t" horiz-adv-x="661" d="M82 840h51v-551v-29l14 -24l115 -187l31 -49h57h86h103v205h-103h-28l-70 112v523h37h102v204h-102h-37v308v102h-205v-102v-308h-51v-204z" />
<glyph unicode="u" horiz-adv-x="1071" d="M123 254l20 -27l140 -186l30 -41h52h282h51l31 43l137 188l21 27v33v651v102h-205v-102v-618l-86 -119h-180l-88 119v618v102h-205v-102v-653v-35z" />
<glyph unicode="v" horiz-adv-x="1042" d="M12 1001l37 -96l326 -839l26 -66h140l26 66l326 839l37 96l-193 74l-37 -96l-229 -594l-229 594l-37 96z" />
<glyph unicode="w" horiz-adv-x="1544" d="M2 1006l33 -97l284 -839l23 -70h147l23 70l186 548l183 -548l22 -70h148l22 70l281 839l32 99l-194 63l-31 -96l-184 -547l-180 547l-23 69h-147l-23 -69l-188 -553l-189 553l-32 96z" />
<glyph unicode="x" horiz-adv-x="1054" d="M27 78l168 -119l59 84l215 302l215 -302l59 -84l168 119l-59 84l-257 360l257 361l59 84l-168 118l-59 -84l-215 -301l-215 301l-59 84l-168 -118l59 -84l257 -361l-257 -360z" />
<glyph unicode="y" horiz-adv-x="1071" d="M96 1006l33 -97l272 -807l-90 -266h-86h-102v-205h102h160h74l22 70l100 299h1l22 70l277 839l32 99l-194 63l-31 -96l-182 -549l-184 549l-33 96z" />
<glyph unicode="z" horiz-adv-x="1030" d="M61 0h103h579h103v205h-103h-389l451 680l16 159h-102h-514h-103v-204h103h323l-450 -680z" />
<glyph unicode="{" horiz-adv-x="894" d="M0 455l59 -27l195 -92v-199v-16l6 -17l127 -380l23 -70h73h125h103v205h-103h-51l-98 295v247v66l-60 27l-63 30l67 33l56 29v63v236l98 297h51h103v204h-103h-125h-73l-23 -69l-127 -383l-6 -16v-17v-188l-199 -101l-55 -28v-129z" />
<glyph unicode="|" horiz-adv-x="567" d="M80 -244v-102h205v102v1528v102h-205v-102v-1528z" />
<glyph unicode="}" horiz-adv-x="894" d="M0 -141v-205h102h129h74l25 70l125 380l4 17v16v187l198 106l54 29v121l-54 30l-198 109v182v17l-4 16l-125 383l-25 69h-74h-129h-102v-204h102h56l96 -297v-226v-59l53 -31l86 -47l-86 -47l-53 -29v-61v-231l-96 -295h-56h-102z" />
<glyph unicode="~" horiz-adv-x="1189" d="M66 602l155 -135l68 78l119 137l272 -158l74 -43l24 29l31 35l172 200l68 78l-156 135l-68 -77l-116 -138l-273 158l-74 43l-24 -29l-31 -34l-174 -201z" />
<glyph unicode="&#xad;" horiz-adv-x="888" d="M109 614h102h391h103v205h-103h-391h-102v-205z" />
<glyph unicode="&#x2000;" horiz-adv-x="739" />
<glyph unicode="&#x2001;" horiz-adv-x="1479" />
<glyph unicode="&#x2002;" horiz-adv-x="739" />
<glyph unicode="&#x2003;" horiz-adv-x="1479" />
<glyph unicode="&#x2004;" horiz-adv-x="493" />
<glyph unicode="&#x2005;" horiz-adv-x="369" />
<glyph unicode="&#x2006;" horiz-adv-x="246" />
<glyph unicode="&#x2007;" horiz-adv-x="246" />
<glyph unicode="&#x2008;" horiz-adv-x="184" />
<glyph unicode="&#x2009;" horiz-adv-x="295" />
<glyph unicode="&#x200a;" horiz-adv-x="82" />
<glyph unicode="&#x2010;" horiz-adv-x="888" d="M109 614h102h391h103v205h-103h-391h-102v-205z" />
<glyph unicode="&#x2011;" horiz-adv-x="888" d="M109 614h102h391h103v205h-103h-391h-102v-205z" />
<glyph unicode="&#x2012;" horiz-adv-x="888" d="M109 614h102h391h103v205h-103h-391h-102v-205z" />
<glyph unicode="&#x2013;" horiz-adv-x="1316" d="M109 614h175h672h177v205h-177h-672h-175v-205z" />
<glyph unicode="&#x2014;" horiz-adv-x="2340" d="M109 614h350h1344h354v205h-354h-1344h-350v-205z" />
<glyph unicode="&#x202f;" horiz-adv-x="295" />
<glyph unicode="&#x205f;" horiz-adv-x="369" />
<glyph unicode="&#x25fc;" horiz-adv-x="1085" d="M0 0v1085h1085v-1085h-1085z" />
</font>
</defs>
</svg>
